<svg width="16" height="17" viewBox="0 0 16 17" fill="none" xmlns="http://www.w3.org/2000/svg">
<path d="M14.6667 5.16667L9.66675 0.783338C9.20839 0.373376 8.61502 0.146729 8.00008 0.146729C7.38513 0.146729 6.79176 0.373376 6.33341 0.783338L1.33341 5.16667C1.06872 5.4034 0.857496 5.6938 0.713806 6.01854C0.570115 6.34328 0.497256 6.69491 0.500079 7.05V14.3333C0.500079 14.9964 0.763471 15.6323 1.23231 16.1011C1.70115 16.5699 2.33704 16.8333 3.00008 16.8333H13.0001C13.6631 16.8333 14.299 16.5699 14.7678 16.1011C15.2367 15.6323 15.5001 14.9964 15.5001 14.3333V7.04167C15.5017 6.68797 15.4283 6.33795 15.2846 6.01474C15.141 5.69152 14.9304 5.40247 14.6667 5.16667ZM9.66675 15.1667H6.33341V11C6.33341 10.779 6.42121 10.567 6.57749 10.4107C6.73377 10.2545 6.94573 10.1667 7.16675 10.1667H8.83341C9.05443 10.1667 9.26639 10.2545 9.42267 10.4107C9.57895 10.567 9.66675 10.779 9.66675 11V15.1667ZM13.8334 14.3333C13.8334 14.5544 13.7456 14.7663 13.5893 14.9226C13.4331 15.0789 13.2211 15.1667 13.0001 15.1667H11.3334V11C11.3334 10.337 11.07 9.70108 10.6012 9.23224C10.1323 8.7634 9.49645 8.5 8.83341 8.5H7.16675C6.5037 8.5 5.86782 8.7634 5.39898 9.23224C4.93014 9.70108 4.66675 10.337 4.66675 11V15.1667H3.00008C2.77907 15.1667 2.5671 15.0789 2.41082 14.9226C2.25454 14.7663 2.16675 14.5544 2.16675 14.3333V7.04167C2.1669 6.92335 2.19224 6.80642 2.24109 6.69865C2.28995 6.59089 2.36119 6.49476 2.45008 6.41667L7.45008 2.04167C7.60215 1.90807 7.79766 1.83439 8.00008 1.83439C8.2025 1.83439 8.398 1.90807 8.55008 2.04167L13.5501 6.41667C13.639 6.49476 13.7102 6.59089 13.7591 6.69865C13.8079 6.80642 13.8333 6.92335 13.8334 7.04167V14.3333Z" fill="#71839B"/>
</svg>
