<svg width="20" height="21" viewBox="0 0 20 21" fill="none" xmlns="http://www.w3.org/2000/svg">
<path fill-rule="evenodd" clip-rule="evenodd" d="M2 1.5C2 1.23478 1.89464 0.98043 1.70711 0.792893C1.51957 0.605357 1.26522 0.5 1 0.5C0.734784 0.5 0.48043 0.605357 0.292893 0.792893C0.105357 0.98043 0 1.23478 0 1.5V18.7C0 19.1774 0.189642 19.6352 0.527208 19.9728C0.864773 20.3104 1.32261 20.5 1.8 20.5H19C19.2652 20.5 19.5196 20.3946 19.7071 20.2071C19.8946 20.0196 20 19.7652 20 19.5C20 19.2348 19.8946 18.9804 19.7071 18.7929C19.5196 18.6054 19.2652 18.5 19 18.5H2V1.5ZM19.707 6.207C19.8892 6.0184 19.99 5.7658 19.9877 5.5036C19.9854 5.2414 19.8802 4.99059 19.6948 4.80518C19.5094 4.61977 19.2586 4.5146 18.9964 4.51233C18.7342 4.51005 18.4816 4.61084 18.293 4.793L12 11.086L8.707 7.793C8.51947 7.60553 8.26516 7.50021 8 7.50021C7.73484 7.50021 7.48053 7.60553 7.293 7.793L3.293 11.793C3.19749 11.8852 3.12131 11.9956 3.0689 12.1176C3.01649 12.2396 2.9889 12.3708 2.98775 12.5036C2.9866 12.6364 3.0119 12.7681 3.06218 12.891C3.11246 13.0139 3.18671 13.1255 3.2806 13.2194C3.3745 13.3133 3.48615 13.3875 3.60905 13.4378C3.73194 13.4881 3.86362 13.5134 3.9964 13.5123C4.12918 13.5111 4.2604 13.4835 4.3824 13.4311C4.50441 13.3787 4.61475 13.3025 4.707 13.207L8 9.914L11.293 13.207C11.4805 13.3945 11.7348 13.4998 12 13.4998C12.2652 13.4998 12.5195 13.3945 12.707 13.207L19.707 6.207Z" fill="#71839B"/>
</svg>
