<svg width="18" height="18" viewBox="0 0 18 18" fill="none" xmlns="http://www.w3.org/2000/svg">
<path d="M9.4915 9.83338L7.57484 11.7417C7.49673 11.8192 7.43474 11.9113 7.39243 12.0129C7.35012 12.1144 7.32834 12.2234 7.32834 12.3334C7.32834 12.4434 7.35012 12.5523 7.39243 12.6539C7.43474 12.7554 7.49673 12.8476 7.57484 12.925C7.65231 13.0031 7.74447 13.0651 7.84602 13.1075C7.94757 13.1498 8.05649 13.1715 8.1665 13.1715C8.27651 13.1715 8.38544 13.1498 8.48698 13.1075C8.58853 13.0651 8.6807 13.0031 8.75817 12.925L12.0915 9.59171C12.1674 9.51246 12.2268 9.419 12.2665 9.31671C12.3499 9.11382 12.3499 8.88626 12.2665 8.68338C12.2268 8.58108 12.1674 8.48763 12.0915 8.40838L8.75817 5.07504C8.68047 4.99734 8.58823 4.93571 8.48671 4.89366C8.38519 4.85161 8.27639 4.82997 8.1665 4.82997C8.05662 4.82997 7.94781 4.85161 7.8463 4.89366C7.74478 4.93571 7.65254 4.99734 7.57484 5.07504C7.49714 5.15274 7.4355 5.24498 7.39345 5.3465C7.3514 5.44802 7.32976 5.55683 7.32976 5.66671C7.32976 5.77659 7.3514 5.8854 7.39345 5.98692C7.4355 6.08844 7.49714 6.18068 7.57484 6.25838L9.4915 8.16671H1.49984C1.27882 8.16671 1.06686 8.25451 0.910582 8.41079C0.754301 8.56707 0.666504 8.77903 0.666504 9.00004C0.666504 9.22106 0.754301 9.43302 0.910582 9.5893C1.06686 9.74558 1.27882 9.83338 1.49984 9.83338H9.4915ZM8.99984 0.666709C7.44241 0.659756 5.91421 1.08939 4.58856 1.90687C3.26291 2.72435 2.19288 3.89697 1.49984 5.29171C1.40038 5.49062 1.38402 5.7209 1.45434 5.93187C1.52467 6.14285 1.67592 6.31725 1.87484 6.41671C2.07375 6.51616 2.30402 6.53253 2.515 6.4622C2.72598 6.39188 2.90038 6.24062 2.99984 6.04171C3.52666 4.97781 4.32803 4.07389 5.32113 3.42337C6.31423 2.77284 7.46302 2.39931 8.6488 2.34137C9.83458 2.28343 11.0143 2.54319 12.0661 3.0938C13.1179 3.64441 14.0036 4.4659 14.6316 5.47337C15.2596 6.48084 15.6072 7.63775 15.6385 8.82453C15.6698 10.0113 15.3836 11.1849 14.8094 12.2241C14.2353 13.2632 13.3941 14.1302 12.3728 14.7354C11.3514 15.3406 10.187 15.6621 8.99984 15.6667C7.75724 15.6721 6.5383 15.327 5.48291 14.6711C4.42753 14.0152 3.57847 13.0749 3.03317 11.9584C2.93371 11.7595 2.75931 11.6082 2.54834 11.5379C2.33736 11.4676 2.10708 11.4839 1.90817 11.5834C1.70926 11.6828 1.558 11.8572 1.48768 12.0682C1.41735 12.2792 1.43371 12.5095 1.53317 12.7084C2.19386 14.038 3.19777 15.1669 4.44106 15.9784C5.68435 16.7899 7.12188 17.2545 8.60494 17.3242C10.088 17.3939 11.5627 17.066 12.8766 16.3746C14.1905 15.6832 15.2958 14.6534 16.0782 13.3916C16.8606 12.1298 17.2917 10.6818 17.3269 9.19754C17.3621 7.71327 17.0001 6.24654 16.2784 4.94907C15.5566 3.6516 14.5014 2.57051 13.2217 1.81763C11.9421 1.06475 10.4845 0.667406 8.99984 0.666709V0.666709Z" fill="#71839B"/>
</svg>
