<svg width="20" height="20" viewBox="0 0 20 20" fill="none" xmlns="http://www.w3.org/2000/svg">
<path fill-rule="evenodd" clip-rule="evenodd" d="M3.07934 3.06902C6.87434 -0.720979 13.0443 -0.680979 16.8623 3.13802C20.6823 6.95802 20.7223 13.131 16.9263 16.926C13.1303 20.721 6.95834 20.682 3.13834 16.862C2.06371 15.792 1.25177 14.4875 0.766293 13.0508C0.280813 11.6142 0.135012 10.0845 0.340339 8.58202C0.367259 8.38483 0.471409 8.20641 0.629877 8.08602C0.788345 7.96562 0.988151 7.9131 1.18534 7.94002C1.38253 7.96694 1.56095 8.07109 1.68134 8.22956C1.80174 8.38803 1.85426 8.58783 1.82734 8.78502C1.65302 10.0583 1.77642 11.3547 2.18782 12.5723C2.59923 13.7899 3.28744 14.8954 4.19834 15.802C7.44334 19.046 12.6663 19.065 15.8663 15.866C19.0653 12.666 19.0463 7.44302 15.8023 4.19802C12.5593 0.956021 7.33934 0.935022 4.13934 4.13002L4.88734 4.13302C4.98583 4.13348 5.08327 4.15334 5.17409 4.19145C5.2649 4.22957 5.34733 4.2852 5.41664 4.35517C5.48596 4.42514 5.54082 4.50807 5.57809 4.59924C5.61536 4.69041 5.6343 4.78803 5.63384 4.88652C5.63338 4.98501 5.61353 5.08245 5.57541 5.17327C5.53729 5.26409 5.48166 5.34651 5.41169 5.41583C5.34173 5.48515 5.25879 5.54 5.16762 5.57727C5.07645 5.61454 4.97883 5.63348 4.88034 5.63302L2.33434 5.62102C2.13664 5.61997 1.94735 5.5409 1.80765 5.40101C1.66795 5.26112 1.58913 5.07172 1.58834 4.87402L1.57534 2.33002C1.57481 2.23153 1.59369 2.1339 1.6309 2.0427C1.6681 1.95151 1.72291 1.86854 1.79218 1.79852C1.86145 1.7285 1.94384 1.67282 2.03463 1.63464C2.12542 1.59647 2.22285 1.57655 2.32134 1.57602C2.41983 1.5755 2.51746 1.59438 2.60866 1.63158C2.69985 1.66879 2.78283 1.72359 2.85284 1.79286C2.92286 1.86214 2.97854 1.94452 3.01672 2.03531C3.05489 2.12611 3.07481 2.22353 3.07534 2.32202L3.07934 3.06902Z" fill="#71839B"/>
</svg>
